<?xml version="1.0" standalone="no"?>
<!DOCTYPE svg PUBLIC "-//W3C//DTD SVG 20010904//EN"
 "http://www.w3.org/TR/2001/REC-SVG-20010904/DTD/svg10.dtd">
<svg version="1.0" xmlns="http://www.w3.org/2000/svg"
 width="256.000000pt" height="256.000000pt" viewBox="0 0 256.000000 256.000000"
 preserveAspectRatio="xMidYMid meet">
<metadata>
Created by potrace 1.11, written by Peter Selinger 2001-2013
</metadata>
<g transform="translate(0.000000,256.000000) scale(0.100000,-0.100000)"
fill="#000000" stroke="none">
<path d="M1167 2545 c-1 -2 -44 -5 -94 -9 -51 -4 -98 -8 -105 -11 -7 -2 -31
-6 -53 -9 -158 -20 -360 -83 -474 -147 -208 -117 -259 -257 -144 -396 14 -18
28 -46 30 -63 2 -27 1 -29 -15 -21 -9 5 -28 21 -41 35 -14 14 -27 26 -31 26
-3 0 -5 -98 -5 -217 1 -206 2 -221 23 -265 22 -43 66 -92 119 -129 12 -8 25
-30 28 -47 l5 -33 -29 15 c-16 9 -53 38 -84 66 -30 27 -57 50 -59 50 -2 0 -3
-100 -3 -222 1 -207 3 -226 23 -264 29 -56 120 -136 201 -176 48 -24 72 -42
84 -65 22 -44 11 -42 -88 8 -89 45 -132 75 -185 130 l-35 37 1 -227 c0 -180 4
-233 16 -262 38 -88 200 -198 373 -253 239 -76 391 -96 700 -92 127 2 241 6
255 9 14 3 41 8 60 11 261 39 504 135 609 239 76 75 81 94 83 345 2 122 1 222
0 222 -2 0 -31 -25 -65 -55 -57 -52 -239 -156 -251 -144 -16 16 24 61 79 90
117 61 191 129 223 203 10 23 18 293 12 454 0 8 -24 -8 -54 -35 -30 -26 -68
-56 -85 -66 l-31 -18 0 30 c0 24 9 36 48 65 50 36 93 90 111 139 9 24 14 169
12 395 l-1 72 -40 -40 c-22 -22 -44 -40 -48 -40 -18 0 3 67 31 99 117 135 44
298 -183 407 -135 65 -344 124 -490 139 -30 3 -75 8 -100 11 -41 6 -327 13
-333 9z"/>
</g>
</svg>
